<svg xmlns="http://www.w3.org/2000/svg" width="512" height="512"><g xmlns="http://www.w3.org/2000/svg"><path d="M413.601 454.568c53.434-44.943 87.402-112.285 87.402-187.571 0-135.311-109.691-245.002-245.002-245.002S10.998 131.687 10.998 266.998c0 44.306 11.763 85.864 32.333 121.725z" fill="#73c3f9" data-original="#73c3f9"/><path d="M115.096 467.44C154.952 495.508 203.548 512 256 512s101.048-16.492 140.904-44.561H115.096z" fill="#2a428c" data-original="#2a428c"/><path d="M234.182 467.44H115.096c33.43 23.544 73.012 38.936 115.858 43.289-19.567-7.425-17.977-38.482 3.228-43.289z" fill="#1c2e7a" data-original="#1c2e7a"/><path d="M344.694 308.523H100.818c-8.279 0-15.053 6.774-15.053 15.053v10.858h273.981v-10.858c.001-8.279-6.773-15.053-15.052-15.053z" fill="#3c58a0" data-original="#3c58a0"/><path d="M191.388 308.523h-90.569c-8.279 0-15.053 6.774-15.053 15.053v10.858h102.817c1.707-.695 2.805-.957 2.805-.957-15.25-11.838 0-24.954 0-24.954z" fill="#2a428c" data-original="#2a428c"/><path d="M160.502 156.47l83.218-99.29 114.448 95.922-83.218 99.29z" fill="#ffb332" data-original="#ffb332"/><path d="M289.871 98.257c1 .352 2.016.225 2.866-.209l-48.858-40.955-83.27 99.338 47.437 39.764a3.634 3.634 0 00.255-3.595c-6.167-12.905 1.878-21.287 1.878-21.287s42.374-48.333 55.041-65.333c8.243-11.061 18.495-9.89 24.651-7.723z" fill="#ff9100" data-original="#ff9100"/><path d="M259.395 38.324l114.759 96.196s-7.508-14.854 3.45-27.927A5527843 5527843 0 01286.29 30.05c-10.958 13.073-26.895 8.274-26.895 8.274z" fill="#3c58a0" data-original="#3c58a0"/><path d="M311.433 78.787c-.432-10.137 6.576-13.243 10.863-14.195 1.205-.268 2.116-1.139 2.536-2.234L286.29 30.05c-10.958 13.072-26.895 8.274-26.895 8.274l51.209 42.926c.553-.67.869-1.535.829-2.463z" fill="#2a428c" data-original="#2a428c"/><path d="M145.12 174.65l114.759 96.197s-15.937-4.799-26.895 8.274l-91.314-76.543c10.958-13.073 3.45-27.928 3.45-27.928z" fill="#3c58a0" data-original="#3c58a0"/><path d="M145.12 174.65s7.508 14.854-3.45 27.927l36.78 30.831c.908-.765 1.429-1.946 1.266-3.204-1.258-9.7 6.091-12.292 10.778-12.966 1.3-.187 2.328-1.063 2.802-2.204L145.12 174.65z" fill="#2a428c" data-original="#2a428c"/><path d="M360.583 204.376l-12.855-.83-24.689 29.453 3.063 12.512c4.366 17.836 17.618 32.111 35.032 37.936 12.703 4.249 27.622 12.497 44.012 24.281a14.836 14.836 0 012.731-4.93l23.394-27.909a14.817 14.817 0 014.377-3.55c-14.466-14.081-25.192-27.33-31.594-39.095-8.777-16.129-25.147-26.684-43.471-27.868z" fill="#3c58a0" data-original="#3c58a0"/><path d="M379.343 258.315c-4.449-1.625-7.898-3.958-10.569-6.544-7.485-7.245-8.015-19.102-1.653-27.35l11.896-15.424a53.088 53.088 0 00-18.434-4.62l-12.855-.83L323.039 233l3.063 12.512c4.366 17.836 17.618 32.111 35.032 37.936 12.703 4.249 27.622 12.497 44.012 24.281a14.846 14.846 0 012.731-4.93l12.904-15.393c-9.064-8.075-28.253-24.275-41.438-29.091z" fill="#2a428c" data-original="#2a428c"/><path d="M495.038 320.907l-40.359-33.831a14.842 14.842 0 01-2.791 5.096l-23.394 27.909a14.83 14.83 0 01-4.53 3.638l54.614 45.781a243.141 243.141 0 0016.46-48.593z" fill="#3c58a0" data-original="#3c58a0"/><path d="M463.425 326.403c-6.153-5.158-7.109-14.31-2.071-20.561l.158-.193 6.641-7.278-13.474-11.295a14.842 14.842 0 01-2.791 5.096l-23.394 27.909a14.83 14.83 0 01-4.53 3.638l54.614 45.781a243.631 243.631 0 009.123-22.747z" fill="#2a428c" data-original="#2a428c"/><path d="M376.369 151.979c-4.582 5.466-12.726 6.182-18.191 1.601L243.419 57.383c-5.466-4.582-6.182-12.726-1.601-18.191 4.582-5.466 12.726-6.182 18.191-1.601l114.759 96.197c5.466 4.581 6.183 12.725 1.601 18.191z" fill="#ffdd40" data-original="#ffdd40"/><path d="M260.009 37.591c-5.465-4.581-13.61-3.865-18.191 1.601-4.581 5.465-3.865 13.61 1.601 18.191l48.784 40.893c1.368-.443 2.44-1.663 2.528-3.249.516-9.268 8.719-11.804 13.576-12.491a3.628 3.628 0 002.797-2.115z" fill="#ffb332" data-original="#ffb332"/><path d="M401.54 105.166c-6.183 7.376-17.175 8.344-24.551 2.16l-91.314-76.543c-7.376-6.183-8.343-17.175-2.16-24.551 6.183-7.376 17.175-8.344 24.551-2.16l91.313 76.544c7.377 6.183 8.344 17.174 2.161 24.55z" fill="#4f71b6" data-original="#4f71b6"/><path d="M308.066 4.072c-7.376-6.183-18.368-5.216-24.551 2.16s-5.216 18.368 2.16 24.551l38.698 32.438a3.742 3.742 0 00.709-2.504c-1.525-19.395 13.66-22.599 20.114-23.089a3.558 3.558 0 001.961-.788z" fill="#3c58a0" data-original="#3c58a0"/><path d="M277.456 269.979c4.581-5.466 3.865-13.61-1.601-18.191l-114.759-96.197c-5.465-4.581-13.61-3.865-18.191 1.601-4.581 5.465-3.865 13.61 1.601 18.191l114.759 96.197c5.465 4.582 13.609 3.865 18.191-1.601z" fill="#ffdd40" data-original="#ffdd40"/><path d="M161.096 155.591c-5.465-4.581-13.61-3.865-18.191 1.601-4.581 5.465-3.865 13.61 1.601 18.191l48.314 40.499c.554-.712.846-1.63.751-2.591-1.146-11.653 6.284-14.775 11.908-15.495 1.479-.189 2.58-1.215 2.997-2.489z" fill="#ffb332" data-original="#ffb332"/><path d="M235.758 302.938c6.183-7.376 5.216-18.368-2.16-24.551l-91.314-76.543c-7.376-6.183-18.368-5.216-24.551 2.16s-5.216 18.368 2.16 24.551l91.314 76.543c7.377 6.184 18.368 5.217 24.551-2.16z" fill="#4f71b6" data-original="#4f71b6"/><path d="M142.285 201.844c-7.376-6.183-18.368-5.216-24.551 2.16s-5.216 18.367 2.16 24.551l37.229 31.207c.301-.6.446-1.279.371-1.978-1.942-18.103 12.075-22.486 19.137-23.546a3.66 3.66 0 002.462-1.54z" fill="#3c58a0" data-original="#3c58a0"/><path d="M357.865 333.477H87.648c-24.374 0-44.317 19.943-44.317 44.317v10.928c12.213 21.291 27.54 40.563 45.345 57.219h313.505v-68.148c.001-24.373-19.942-44.316-44.316-44.316z" fill="#4f71b6" data-original="#4f71b6"/><path d="M180.138 444.029c-11.25-4.536-11.25-17.464-11.25-17.464v-60.75c0-27 22.5-32.338 22.5-32.338H87.648c-24.374 0-44.317 19.943-44.317 44.317v10.928c12.213 21.291 27.54 40.563 45.345 57.219h89.698c1.009-1.211 1.764-1.912 1.764-1.912z" fill="#3c58a0" data-original="#3c58a0"/><path d="M416.078 452.474c-1.82-4.926-6.544-8.445-12.103-8.445H86.637a246.146 246.146 0 0031.943 25.826h274.84a246.123 246.123 0 0022.658-17.381z" fill="#ffdd40" data-original="#ffdd40"/><path d="M180.138 444.029H86.637a246.146 246.146 0 0031.943 25.826h61.558c-15.5-11.46 0-25.826 0-25.826z" fill="#ffb332" data-original="#ffb332"/><path d="M295.479 226.628l11.979 10.042c4.639 3.889 11.616 3.275 15.504-1.364l27.023-32.237c3.889-4.639 3.275-11.616-1.364-15.504l-11.979-10.042zm155.297 45.187c-6.301-5.282-15.69-4.455-20.971 1.845l-23.394 27.909c-5.282 6.301-4.456 15.69 1.845 20.971 6.301 5.282 15.69 4.456 20.971-1.845l23.394-27.909c5.281-6.3 4.455-15.689-1.845-20.971z" fill="#ffdd40" data-original="#ffdd40"/><path d="M427.513 299.115c-4.87-4.082-6.768-10.383-5.478-16.186l-15.625 18.64c-5.282 6.301-4.456 15.69 1.845 20.971 6.301 5.282 15.69 4.456 20.971-1.845l16.408-19.574c-5.714 2.952-12.883 2.385-18.121-2.006z" fill="#ffb332" data-original="#ffb332"/><path d="M337.375 178.136c-23.482 4.786-40.551 25.149-41.163 49.106l22.001-23.269z" fill="#ffdd40" data-original="#ffdd40"/></g></svg>