<svg xmlns="http://www.w3.org/2000/svg" width="512" height="512" viewBox="0 0 68.422 68.422"><path d="M59.571 45.188l-1.414-12.206c-.078-10.371-6.919-19.511-16.637-22.629V7.308C41.52 3.279 38.242 0 34.212 0s-7.309 3.278-7.309 7.308v3.045c-9.717 3.118-16.559 12.258-16.637 22.629L8.853 45.185a7.942 7.942 0 00-3.045 6.284v.479c0 5.963 5.834 5.963 8.03 5.963h8.064c.935 5.951 5.875 10.511 11.827 10.511s10.892-4.56 11.827-10.511h9.026c2.196 0 8.031 0 8.031-5.963v-.479a7.935 7.935 0 00-3.042-6.281zm-25.84 17.234c-2.318 0-4.334-1.442-5.333-3.548h10.665c-.998 2.106-3.014 3.548-5.332 3.548zm22.884-10.613c-.405.068-1.085.103-2.031.103H13.839c-.946 0-1.625-.034-2.03-.103v-.339c0-.93.601-1.55 1.163-1.82l1.489-.717 1.787-15.426.02-.345c0-8.451 5.994-15.838 14.252-17.565l2.386-.499V7.309a1.31 1.31 0 012.617 0v7.788l2.386.499c8.258 1.727 14.252 9.115 14.252 17.565l1.807 15.772 1.488.718c.562.271 1.162.891 1.162 1.818v.34h-.003z" fill="#646D7C" data-original="#646D7C" xmlns="http://www.w3.org/2000/svg"/></svg>