<svg xmlns="http://www.w3.org/2000/svg" width="512" height="512"><path d="M256 0C114.615 0 0 114.615 0 256s114.615 256 256 256 256-114.615 256-256S397.385 0 256 0zm150.232 349.541l-44.16.606s-9.499 1.886-21.962-6.737c-16.539-11.352-32.101-40.825-44.227-37.053s-11.924 30.316-11.924 30.316a14.63 14.63 0 01-2.728 8.691 16.844 16.844 0 01-9.027 3.941h-19.571s-43.789 2.594-82.021-37.356c-42.038-43.385-79.057-130.055-79.057-130.055s-2.18-5.027.202-8.421c2.059-2.934 7.137-3.249 9.701-3.368 11.053-.517 44.261-.303 44.261-.303 2.778-.069 4.645.077 8.084 1.583 2.956 1.461 5.198 3.637 6.636 7.141a316.737 316.737 0 0017.752 37.053c19.739 34.122 28.935 41.566 35.638 37.928 9.735-5.322 6.737-48.202 6.737-48.202s0-15.596-4.918-22.501a22.195 22.195 0 00-14.585-7.646c-2.661-.371 1.718-6.535 7.377-9.297 8.488-4.177 23.512-4.177 41.229-4.177 7.797-.294 15.597.5 23.175 2.358 16.303 3.941 10.779 19.099 10.779 55.545 0 11.655-2.122 28.093 6.299 33.684 3.638 2.324 12.463.337 34.627-37.255a288.68 288.68 0 0018.358-38.737 14.09 14.09 0 014.379-5.356 11.388 11.388 0 016.434-1.112l49.718-.337s14.922-1.785 17.347 4.985c2.425 6.771-5.592 23.579-25.903 50.526-33.347 44.463-37.053 40.421-9.364 65.987 26.442 24.556 31.933 36.514 32.842 37.996 10.979 18.125-12.128 19.573-12.128 19.573z" fill="#8993a4" data-original="#000000" xmlns="http://www.w3.org/2000/svg"/></svg>