<svg xmlns="http://www.w3.org/2000/svg" width="512" height="512" viewBox="0 0 152 152"><g data-name="Layer 2"><path d="M76 0a76 76 0 1076 76A76 76 0 0076 0zm39.12 56c0 .86.07 1.72.07 2.61 0 26.67-20.31 57.44-57.46 57.44a56.79 56.79 0 01-31-9.06 36.45 36.45 0 004.83.28 40.59 40.59 0 0025-8.61 20.39 20.39 0 01-18.8-14.11 18 18 0 003.83.34 20.13 20.13 0 005.29-.66 20.28 20.28 0 01-16.17-19.84v-.22a19.92 19.92 0 009.12 2.49 20.2 20.2 0 01-6.21-27 57.16 57.16 0 0041.61 21.13 20.87 20.87 0 01-.47-4.6 20.18 20.18 0 0134.92-13.8 40.32 40.32 0 0012.8-4.89 20.06 20.06 0 01-8.88 11.16 42 42 0 0011.63-3.19A40.16 40.16 0 01115.12 56z" data-name="04.Twitter" fill="#8993a4" data-original="#000000" xmlns="http://www.w3.org/2000/svg"/></g></svg>