<svg xmlns="http://www.w3.org/2000/svg" viewBox="0 0 128 128"><path d="M122.732 10.606l-.002 26.701a5.337 5.337 0 11-10.675-.001v-13.8L81.036 54.552a5.322 5.322 0 01-3.779 1.564 5.337 5.337 0 01-3.776-9.111l31.029-31.059H90.713a5.34 5.34 0 010-10.68h26.679c1.417 0 2.774.563 3.776 1.566a5.338 5.338 0 011.564 3.774zm-5.339 74.746a5.34 5.34 0 00-5.338 5.341v13.8L81.556 74.254c-2.087-2.085-5.61-2.087-7.695-.002-2.086 2.082-2.158 5.464-.075 7.548l30.191 30.254H90.154a5.342 5.342 0 00-5.343 5.339 5.335 5.335 0 005.335 5.338l26.675.003c1.418 0 3.062-.563 4.061-1.564 1.001-1.001 1.851-2.359 1.851-3.774V90.692a5.343 5.343 0 00-5.34-5.34zM46.442 74.019l-30.496 30.476V90.692c0-2.949-2.343-5.334-5.291-5.334h.022a5.327 5.327 0 00-5.328 5.334l.002 26.7a5.342 5.342 0 005.345 5.34h26.68a5.34 5.34 0 000-10.68H23.583l30.458-30.486c2.087-2.084 2.06-5.469-.025-7.551s-5.488-2.08-7.574.004zM23.489 16.427h13.795a5.34 5.34 0 000-10.677l-26.677-.002h-.001A5.34 5.34 0 006.83 7.309a5.342 5.342 0 00-1.563 3.777l.003 26.702a5.34 5.34 0 005.338 5.339 5.34 5.34 0 005.338-5.339V23.986l30.776 30.801a5.324 5.324 0 003.778 1.566 5.34 5.34 0 003.776-9.116z" fill="#fff" xmlns="http://www.w3.org/2000/svg"/></svg>