<?xml version="1.0" encoding="UTF-8"?>
<svg width="62px" height="82px" viewBox="0 0 62 82" version="1.1" xmlns="http://www.w3.org/2000/svg" xmlns:xlink="http://www.w3.org/1999/xlink">
    <!-- Generator: Sketch 57.1 (83088) - https://sketch.com -->
    <title>Group 4</title>
    <desc>Created with Sketch.</desc>
    <g id="Page-1" stroke="none" stroke-width="1" fill="none" fill-rule="evenodd" stroke-linecap="round" stroke-linejoin="round">
        <g id="Group-4" transform="translate(3.000000, 4.000000)" stroke="#646D7C" stroke-width="6">
            <path d="M26.5,33.5 L0.5,17.5 L26.5,33.5 Z" id="Line-8"></path>
            <path d="M26.5,74.5 L0.5,58.5 L26.5,74.5 Z" id="Line-8"></path>
            <path d="M26.5,74 L26.5,34 L26.5,74 Z" id="Line-8"></path>
            <path d="M36,28 L10,12 L36,28 Z" id="Line-8"></path>
            <path d="M36.5,68.5 L36.5,28.5 L36.5,68.5 Z" id="Line-8"></path>
            <path d="M45,22 L19,6 L45,22 Z" id="Line-8"></path>
            <path d="M45.5,62.5 L45.5,22.5 L45.5,62.5 Z" id="Line-8"></path>
            <path d="M55,16 L29,0 L55,16 Z" id="Line-8"></path>
            <path d="M55.5,56.5 L55.5,16.5 L55.5,56.5 Z" id="Line-8"></path>
            <path d="M0.5,58 L0.5,18 L0.5,58 Z" id="Line-8"></path>
        </g>
    </g>
</svg>