<svg xmlns="http://www.w3.org/2000/svg" width="512" height="512" viewBox="0 0 152 152"><g data-name="Layer 2"><g data-name="46.Odnoklassniki" xmlns="http://www.w3.org/2000/svg" fill="#8993a4"><circle cx="76" cy="56.18" r="10.06" transform="rotate(-9.25 76.05 56.304)" data-original="#000000"/><path d="M76 0a76 76 0 1076 76A76 76 0 0076 0zm0 36a20.18 20.18 0 11-20.18 20.18A20.17 20.17 0 0176 36zm27.12 52.78a60.93 60.93 0 01-14.33 5.87l9.72 9.72a6.81 6.81 0 010 9.63 6.81 6.81 0 01-9.63 0L76 101.12 63.12 114a6.81 6.81 0 01-9.63 0 6.81 6.81 0 010-9.63l9.72-9.72a60.93 60.93 0 01-14.33-5.87 6.85 6.85 0 016.7-12c13.74 7.7 27.1 7.7 40.84 0a6.85 6.85 0 016.7 12z" data-original="#000000"/></g></g></svg>