<svg width="120" height="40" fill="none" xmlns="http://www.w3.org/2000/svg"><g clip-path="url(#clip0_102_40)"><path d="M1.69 31v-3.584l.597-.051c.77-.062 1.39-.354 1.864-.876.474-.528.828-1.37 1.061-2.523.24-1.16.395-2.719.463-4.675l.35-9.382H20.34V31h-4.335V13.483h-5.84l-.33 7.342c-.109 2.362-.39 4.291-.844 5.788-.446 1.497-1.16 2.602-2.142 3.316C5.875 30.643 4.54 31 2.843 31H1.69zm29.391.309c-1.6 0-2.983-.34-4.15-1.02a6.976 6.976 0 01-2.688-2.863c-.631-1.228-.947-2.653-.947-4.273 0-1.634.316-3.062.947-4.284.632-1.23 1.528-2.184 2.688-2.863 1.167-.687 2.55-1.03 4.15-1.03 1.6 0 2.98.343 4.14 1.03a6.874 6.874 0 012.698 2.863c.632 1.222.948 2.65.948 4.284 0 1.62-.316 3.045-.948 4.274a6.956 6.956 0 01-2.698 2.862c-1.16.68-2.54 1.02-4.14 1.02zm.02-3.399c.729 0 1.336-.206 1.824-.617.487-.42.855-.989 1.102-1.71.254-.72.38-1.541.38-2.461 0-.92-.126-1.74-.38-2.462-.248-.72-.615-1.29-1.102-1.709-.488-.419-1.095-.628-1.823-.628-.735 0-1.353.21-1.854.628-.494.419-.868.989-1.122 1.71-.247.72-.371 1.54-.371 2.46 0 .92.124 1.741.37 2.462.255.721.629 1.29 1.123 1.71.501.412 1.12.617 1.854.617zm21.452-12.728v3.45h-6.57V31h-4.264V15.182h10.834zm9.256 16.127c-1.6 0-2.983-.34-4.15-1.02a6.976 6.976 0 01-2.688-2.863c-.632-1.228-.948-2.653-.948-4.273 0-1.634.316-3.062.948-4.284.631-1.23 1.527-2.184 2.688-2.863 1.167-.687 2.55-1.03 4.15-1.03 1.6 0 2.98.343 4.14 1.03a6.875 6.875 0 012.698 2.863c.632 1.222.947 2.65.947 4.284 0 1.62-.315 3.045-.947 4.274a6.956 6.956 0 01-2.698 2.862c-1.16.68-2.54 1.02-4.14 1.02zm.02-3.399c.728 0 1.336-.206 1.823-.617.488-.42.855-.989 1.102-1.71.254-.72.381-1.541.381-2.461 0-.92-.127-1.74-.38-2.462-.248-.72-.615-1.29-1.103-1.709-.487-.419-1.095-.628-1.822-.628-.735 0-1.353.21-1.854.628-.495.419-.869.989-1.123 1.71-.247.72-.37 1.54-.37 2.46 0 .92.123 1.741.37 2.462.254.721.628 1.29 1.123 1.71.5.412 1.119.617 1.854.617zm9.086-9.278v-3.45H85.25v3.45h-5.097V31h-4.181V18.632h-5.057zm21.186 6.58l5.695-10.03h4.326V31H97.94V20.939L92.266 31H87.91V15.182h4.19v10.03zM105.638 31V15.182h13.831V31h-4.191V18.632h-5.5V31h-4.14z" fill="#fff"/></g><defs><clipPath id="clip0_102_40"><path fill="#fff" d="M0 0h120v40H0z"/></clipPath></defs></svg>